# xmcd
#
# Track frame offsets:
#	150
#	17025
#	35599
#	57409
#	77571
#	88163
#	110435
#	133466
#	152741
#	169304
#	180107
#
# Disc length: 2683 seconds
#
# Revision: 0
# Processed by: cddbd v1.4PL0 Copyright (c) Steve Scherf et al.
# Submitted via: EasyCDDAExtractor 4.6.9.1
#
DISCID=8c0a790b
DTITLE=Dixie Chicks - Home
DYEAR=1900
DGENRE=Country
TTITLE0=Long Time Gone
TTITLE1=Landslide (Featuring Stevie Nicks)
TTITLE2=Travelin Soldier
TTITLE3=Truth No. 2
TTITLE4=White Trash Wedding
TTITLE5=A Home
TTITLE6=More Love
TTITLE7=I Believe In Love
TTITLE8=Tortured, Tangled Hearts
TTITLE9=Lil Jack Slade
TTITLE10=Godspeed (Sweet Dreams)
EXTD=
EXTT0=
EXTT1=
EXTT2=
EXTT3=
EXTT4=
EXTT5=
EXTT6=
EXTT7=
EXTT8=
EXTT9=
EXTT10=
PLAYORDER=
